HIERARCHY
ROOT Hips
{
	OFFSET 0.00000 0.00000 0.00000
	CHANNELS 6 Xposition Yposition Zposition Zrotation Yrotation Xrotation 
	JOINT LHipJoint
	{
		OFFSET 0 0 0
		CHANNELS 3 Zrotation Yrotation Xrotation
		JOINT LeftHip
		{
			OFFSET 1.57314 -1.85774 0.63783
			CHANNELS 3 Zrotation Yrotation Xrotation
			JOINT LeftKnee
			{
				OFFSET 2.57982 -7.08799 0.00000
				CHANNELS 3 Zrotation Yrotation Xrotation
				JOINT LeftAnkle
				{
					OFFSET 2.63993 -7.25315 0.00000
					CHANNELS 3 Zrotation Yrotation Xrotation
					JOINT LeftToe
					{
						OFFSET 0.16864 -0.46332 2.12791
						CHANNELS 3 Zrotation Yrotation Xrotation
						End Site
						{
							OFFSET 0.00000 -0.00000 1.09718
						}
					}
				}
			}
		}
	}
	JOINT RHipJoint
	{
		OFFSET 0 0 0
		CHANNELS 3 Zrotation Yrotation Xrotation
		JOINT RightHip
		{
			OFFSET -1.56006 -1.85774 0.63784
			CHANNELS 3 Zrotation Yrotation Xrotation
			JOINT RightKnee
			{
				OFFSET -2.54246 -6.98536 0.00000
				CHANNELS 3 Zrotation Yrotation Xrotation
				JOINT RightAnkle
				{
					OFFSET -2.65791 -7.30256 0.00000
					CHANNELS 3 Zrotation Yrotation Xrotation
					JOINT RightToe
					{
						OFFSET -0.18435 -0.50650 2.16316
						CHANNELS 3 Zrotation Yrotation Xrotation
						End Site
						{
							OFFSET -0.00000 -0.00000 1.11780
						}
					}
				}
			}
		}
	}
	JOINT lowerback
	{
		OFFSET 0 0 0
		CHANNELS 3 Zrotation Yrotation Xrotation
		JOINT Chest
		{
			OFFSET -0.00136 1.92812 -0.29638
			CHANNELS 3 Zrotation Yrotation Xrotation
			JOINT Chest2
			{
				OFFSET -0.00528 1.96223 -0.02928
				CHANNELS 3 Zrotation Yrotation Xrotation
				JOINT lowerneck
				{
					OFFSET 0 0 0
					CHANNELS 3 Zrotation Yrotation Xrotation
					JOINT Neck
					{
						OFFSET -0.01015 1.75586 0.07797
						CHANNELS 3 Zrotation Yrotation Xrotation
						JOINT Head
						{
							OFFSET 0.05540 1.72452 0.04558
							CHANNELS 3 Zrotation Yrotation Xrotation
							End Site
							{
								OFFSET 0.02170 1.79958 0.00864
							}
						}
					}
				}
				JOINT LeftCollar
				{
					OFFSET 0 0 0
					CHANNELS 3 Zrotation Yrotation Xrotation
					JOINT LeftShoulder
					{
						OFFSET 3.16292 1.29277 -0.65728
CHANNELS 3 Zrotation Xrotation Yrotation
						JOINT LeftElbow
						{
OFFSET 0 -5.523020 -0.000000
CHANNELS 3 Zrotation Xrotation Yrotation
							JOINT LeftWrist
							{
OFFSET 0 -3.586750 -0.000000
CHANNELS 3 Zrotation Xrotation Yrotation
								JOINT lhand
								{
									OFFSET 0 0 0
CHANNELS 3 Zrotation Xrotation Yrotation
									JOINT LFingers
									{
OFFSET 0 -0.536410 -0.000000
CHANNELS 3 Zrotation Xrotation Yrotation
										End Site
										{
OFFSET 0 -0.432470 -0.000000
										}
									}
								}
								JOINT LThumb
								{
OFFSET 0 0.000000 0.000000
CHANNELS 3 Zrotation Xrotation Yrotation
									End Site
									{
OFFSET 0 -0.439070 0.439070
									}
								}
							}
						}
					}
				}
				JOINT RightCollar
				{
					OFFSET 0 0 0
					CHANNELS 3 Zrotation Yrotation Xrotation
					JOINT RightShoulder
					{
						OFFSET -3.08296 1.43376 -0.52927
CHANNELS 3 Zrotation Xrotation Yrotation
						JOINT RightElbow
						{
OFFSET 0 -5.847800 0.000000
CHANNELS 3 Zrotation Xrotation Yrotation
							JOINT RightWrist
							{
OFFSET 0 -3.627170 -0.000000
CHANNELS 3 Zrotation Xrotation Yrotation
								JOINT rhand
								{
									OFFSET 0 0 0
CHANNELS 3 Zrotation Xrotation Yrotation
									JOINT RFingers
									{
OFFSET 0 -0.650520 -0.000000
CHANNELS 3 Zrotation Xrotation Yrotation
										End Site
										{
OFFSET 0 -0.524460 -0.000000
										}
									}
								}
								JOINT RThumb
								{
OFFSET 0 0.000000 0.000000
CHANNELS 3 Zrotation Xrotation Yrotation
									End Site
									{
OFFSET 0 -0.532470 0.532470
									}
								}
							}
						}
					}
				}
			}
		}
	}
}
MOTION
Frames: 9
Frame Time: 0.008333333333333333
1.307800 18.310000 -31.153900 -8.116800 2.684300 4.773100 0.000000 0.000000 0.000000 -5.932100 -17.509300 -35.525900 2.305600 9.475500 27.294300 0.058700 -1.027900 5.078500 0.323800 -3.657800 -10.115800 0.000000 0.000000 0.000000 36.593300 -3.482500 23.993100 -2.434900 -9.718600 28.070300 -2.729400 -13.035800 29.874700 -0.417400 -4.147100 11.490800 8.588500 0.124600 13.408900 0.334500 1.499900 0.577100 -4.781900 0.469400 -6.720000 0.348500 -0.805900 -9.294400 0.171600 -1.080300 -8.987000 -0.021100 -0.544900 -1.250100 0.000000 0.000000 0.000000 4.721200 34.487700 -39.277700 121.157100 -55.993700 86.619900 37.617400 -20.451200 -7.223400 0.000000 0.000000 0.000000 -7.125000 0.000000 0.000000 9.380600 38.907800 1.422600 0.000000 0.000000 0.000000 -11.211600 -4.560000 52.453500 -128.976600 -53.400000 -93.006400 -44.021600 -21.545900 -25.339900 0.000000 0.000000 0.000000 7.125000 0.000000 -0.000000 -8.406400 -3.068800 -8.939200
1.305363 18.302745 -31.010735 -8.158745 2.620836 4.729266 0.000000 0.000000 0.000000 -6.118715 -17.215168 -35.242391 2.229048 9.323382 26.815415 0.054210 -0.978043 4.863712 0.437122 -4.158589 -11.535947 0.000000 0.000000 0.000000 36.591383 -3.445922 23.380386 -2.728512 -10.199265 29.665426 -2.799654 -13.428606 30.283276 -0.527354 -4.592720 12.761513 8.570348 0.138673 13.381548 0.347149 1.509784 0.650311 -4.758135 0.481529 -6.624995 0.314331 -0.792512 -9.261956 0.215981 -1.056781 -9.143881 -0.000922 -0.532579 -1.304584 0.000000 0.000000 0.000000 4.633314 34.182671 -39.228746 121.149653 -55.995781 86.613712 37.614854 -20.430502 -7.127163 0.000000 0.000000 0.000000 -7.125000 0.000000 0.000000 9.370552 38.788510 1.448720 0.000000 0.000000 0.000000 -11.298583 -4.354521 52.632887 -128.425352 -53.605123 -92.561683 -43.286174 -20.688035 -24.706159 0.000000 0.000000 0.000000 7.125000 0.000000 0.000000 -8.130776 -2.041076 -8.510309
1.302927 18.295489 -30.867571 -8.200689 2.557371 4.685433 0.000000 0.000000 0.000000 -6.305330 -16.921036 -34.958882 2.152497 9.171265 26.336529 0.049720 -0.928186 4.648924 0.550443 -4.659377 -12.956094 0.000000 0.000000 0.000000 36.589467 -3.409343 22.767672 -3.022124 -10.679930 31.260552 -2.869909 -13.821412 30.691853 -0.637308 -5.038340 14.032225 8.552195 0.152746 13.354197 0.359798 1.519668 0.723523 -4.734370 0.493658 -6.529990 0.280162 -0.779123 -9.229512 0.260363 -1.033263 -9.300763 0.019257 -0.520259 -1.359068 0.000000 0.000000 0.000000 4.545427 33.877642 -39.179793 121.142206 -55.997862 86.607525 37.612308 -20.409803 -7.030926 0.000000 0.000000 0.000000 -7.125000 0.000000 0.000000 9.360504 38.669220 1.474839 0.000000 0.000000 0.000000 -11.385566 -4.149042 52.812274 -127.874104 -53.810246 -92.116967 -42.550747 -19.830170 -24.072418 0.000000 0.000000 0.000000 7.125000 0.000000 0.000000 -7.855152 -1.013352 -8.081417
1.300490 18.288234 -30.724406 -8.242634 2.493907 4.641599 0.000000 0.000000 0.000000 -6.491945 -16.626903 -34.675372 2.075945 9.019147 25.857644 0.045230 -0.878329 4.434136 0.663765 -5.160166 -14.376241 0.000000 0.000000 0.000000 36.587550 -3.372765 22.154958 -3.315736 -11.160595 32.855678 -2.940163 -14.214218 31.100429 -0.747262 -5.483960 15.302938 8.534043 0.166818 13.326845 0.372447 1.529551 0.796734 -4.710605 0.505787 -6.434985 0.245993 -0.765735 -9.197068 0.304744 -1.009744 -9.457644 0.039435 -0.507938 -1.413552 0.000000 0.000000 0.000000 4.457541 33.572613 -39.130839 121.134759 -55.999942 86.601337 37.609761 -20.389105 -6.934689 0.000000 0.000000 0.000000 -7.125000 0.000000 0.000000 9.350456 38.549930 1.500959 0.000000 0.000000 0.000000 -11.472549 -3.943563 52.991661 -127.322856 -54.015370 -91.672250 -41.815321 -18.972305 -23.438677 0.000000 0.000000 0.000000 7.125000 0.000000 0.000000 -7.579528 0.014373 -7.652526
1.298310 18.280093 -30.580994 -8.240558 2.429262 4.603341 0.000000 0.000000 0.000000 -6.737321 -16.323074 -34.416443 2.008063 8.881751 25.426889 0.042386 -0.793529 4.270201 0.792017 -5.654293 -15.792229 0.000000 0.000000 0.000000 36.539767 -3.326347 21.543577 -3.629065 -11.632687 34.467085 -2.999760 -14.589981 31.450207 -0.847843 -5.865491 16.396779 8.487572 0.185421 13.268386 0.364904 1.536533 0.878595 -4.690951 0.518344 -6.313992 0.210378 -0.752984 -9.150017 0.366929 -0.985703 -9.620521 0.065504 -0.495570 -1.472490 0.000000 0.000000 0.000000 4.394862 33.251055 -39.097967 121.141909 -55.997922 86.607263 37.575232 -20.392795 -6.845189 0.000000 0.000000 0.000000 -7.125000 0.000000 0.000000 9.313240 38.436396 1.520902 0.000000 0.000000 0.000000 -11.542784 -3.756601 53.154319 -126.713209 -54.233891 -91.178318 -41.123487 -18.185085 -22.821798 0.000000 0.000000 0.000000 7.125000 0.000000 0.000000 -7.315732 0.994403 -7.251087
1.296613 18.270292 -30.437118 -8.155847 2.362403 4.575552 0.000000 0.000000 0.000000 -7.093001 -16.001043 -34.203653 1.956453 8.771989 25.086487 0.042632 -0.643137 4.201726 0.948296 -6.135917 -17.200412 0.000000 0.000000 0.000000 36.405884 -3.261459 20.934696 -3.979406 -12.088683 36.109056 -3.039350 -14.933751 31.689608 -0.930828 -6.126714 17.158598 8.387940 0.212526 13.151533 0.319455 1.538066 0.976694 -4.679014 0.531705 -6.144215 0.172047 -0.741430 -9.075546 0.462537 -0.960678 -9.794651 0.102629 -0.483113 -1.539787 0.000000 0.000000 0.000000 4.379502 32.898468 -39.095284 121.176461 -55.988202 86.635929 37.480665 -20.442269 -6.768336 0.000000 0.000000 0.000000 -7.125000 0.000000 0.000000 9.225025 38.333671 1.529253 0.000000 0.000000 0.000000 -11.581580 -3.604402 53.285574 -125.993936 -54.477564 -90.591997 -40.513483 -17.530482 -22.236573 0.000000 0.000000 0.000000 7.125000 0.000000 0.000000 -7.074140 1.884904 -6.901184
1.294915 18.260490 -30.293241 -8.071137 2.295543 4.547762 0.000000 0.000000 0.000000 -7.448681 -15.679012 -33.990864 1.904844 8.662226 24.746084 0.042878 -0.492744 4.133251 1.104575 -6.617540 -18.608594 0.000000 0.000000 0.000000 36.272001 -3.196571 20.325815 -4.329747 -12.544680 37.751028 -3.078940 -15.277522 31.929010 -1.013814 -6.387936 17.920418 8.288308 0.239631 13.034679 0.274006 1.539599 1.074793 -4.667077 0.545066 -5.974438 0.133717 -0.729876 -9.001075 0.558144 -0.935654 -9.968781 0.139755 -0.470655 -1.607085 0.000000 0.000000 0.000000 4.364142 32.545882 -39.092601 121.211014 -55.978483 86.664595 37.386098 -20.491743 -6.691483 0.000000 0.000000 0.000000 -7.125000 0.000000 0.000000 9.136810 38.230945 1.537604 0.000000 0.000000 0.000000 -11.620376 -3.452202 53.416829 -125.274663 -54.721237 -90.005677 -39.903480 -16.875878 -21.651348 0.000000 0.000000 0.000000 7.125000 0.000000 0.000000 -6.832548 2.775405 -6.551281
1.293218 18.250688 -30.149365 -7.986426 2.228684 4.519972 0.000000 0.000000 0.000000 -7.804361 -15.356980 -33.778075 1.853235 8.552464 24.405681 0.043125 -0.342351 4.064776 1.260854 -7.099164 -20.016776 0.000000 0.000000 0.000000 36.138118 -3.131683 19.716934 -4.680089 -13.000677 39.392999 -3.118530 -15.621292 32.168412 -1.096799 -6.649159 18.682238 8.188676 0.266736 12.917826 0.228556 1.541133 1.172892 -4.655139 0.558427 -5.804661 0.095386 -0.718323 -8.926605 0.653751 -0.910629 -10.142912 0.176881 -0.458198 -1.674382 0.000000 0.000000 0.000000 4.348783 32.193296 -39.089918 121.245566 -55.968763 86.693260 37.291531 -20.541217 -6.614631 0.000000 0.000000 0.000000 -7.125000 0.000000 0.000000 9.048595 38.128219 1.545954 0.000000 0.000000 0.000000 -11.659172 -3.300002 53.548083 -124.555390 -54.964910 -89.419356 -39.293477 -16.221274 -21.066122 0.000000 0.000000 0.000000 7.125000 0.000000 0.000000 -6.590956 3.665906 -6.201378
1.291539 18.239098 -30.009257 -7.885291 2.272399 4.455052 0.000000 0.000000 0.000000 -8.149631 -15.165392 -33.476674 1.808172 8.453150 24.099954 0.044970 -0.097276 4.059868 1.336267 -7.317731 -20.660816 0.000000 0.000000 0.000000 35.992226 -3.175504 19.117969 -5.041868 -13.408085 40.958234 -3.128373 -15.975130 32.262906 -1.150077 -6.807116 19.146154 8.110492 0.300845 12.899747 0.116801 1.553914 1.434188 -4.727437 0.586080 -5.512358 0.297217 -0.737029 -9.705859 0.678979 -0.960285 -10.034021 0.146920 -0.487192 -1.518952 0.000000 0.000000 0.000000 4.603712 31.378715 -39.295328 121.194285 -55.983081 86.650748 37.323563 -20.495227 -6.697188 0.000000 0.000000 0.000000 -7.125000 0.000000 0.000000 9.083058 38.232920 1.527717 0.000000 0.000000 0.000000 -11.544116 -3.479373 53.393710 -123.686890 -55.233171 -88.705181 -38.800918 -15.605533 -20.630277 0.000000 0.000000 0.000000 7.125000 0.000000 0.000000 -6.378102 4.327817 -5.920179
